<svg id="visual" viewBox="0 0 900 600" width="900" height="600" xmlns="http://www.w3.org/2000/svg" xmlns:xlink="http://www.w3.org/1999/xlink" version="1.1"><rect x="0" y="0" width="900" height="600" fill="#447fff"></rect><path d="M0 238L21.5 231.7C43 225.3 86 212.7 128.8 222.5C171.7 232.3 214.3 264.7 257.2 261.2C300 257.7 343 218.3 385.8 215.5C428.7 212.7 471.3 246.3 514.2 253.5C557 260.7 600 241.3 642.8 223C685.7 204.7 728.3 187.3 771.2 192.3C814 197.3 857 224.7 878.5 238.3L900 252L900 601L878.5 601C857 601 814 601 771.2 601C728.3 601 685.7 601 642.8 601C600 601 557 601 514.2 601C471.3 601 428.7 601 385.8 601C343 601 300 601 257.2 601C214.3 601 171.7 601 128.8 601C86 601 43 601 21.5 601L0 601Z" fill="#245cc7"></path><path d="M0 216L21.5 233.7C43 251.3 86 286.7 128.8 283C171.7 279.3 214.3 236.7 257.2 224C300 211.3 343 228.7 385.8 255C428.7 281.3 471.3 316.7 514.2 318.3C557 320 600 288 642.8 289.3C685.7 290.7 728.3 325.3 771.2 320.8C814 316.3 857 272.7 878.5 250.8L900 229L900 601L878.5 601C857 601 814 601 771.2 601C728.3 601 685.7 601 642.8 601C600 601 557 601 514.2 601C471.3 601 428.7 601 385.8 601C343 601 300 601 257.2 601C214.3 601 171.7 601 128.8 601C86 601 43 601 21.5 601L0 601Z" fill="#234faa"></path><path d="M0 351L21.5 351.3C43 351.7 86 352.3 128.8 359.2C171.7 366 214.3 379 257.2 377.7C300 376.3 343 360.7 385.8 344C428.7 327.3 471.3 309.7 514.2 304.8C557 300 600 308 642.8 306.3C685.7 304.7 728.3 293.3 771.2 287.7C814 282 857 282 878.5 282L900 282L900 601L878.5 601C857 601 814 601 771.2 601C728.3 601 685.7 601 642.8 601C600 601 557 601 514.2 601C471.3 601 428.7 601 385.8 601C343 601 300 601 257.2 601C214.3 601 171.7 601 128.8 601C86 601 43 601 21.5 601L0 601Z" fill="#21428d"></path><path d="M0 436L21.5 423.7C43 411.3 86 386.7 128.8 387C171.7 387.3 214.3 412.7 257.2 425.2C300 437.7 343 437.3 385.8 430C428.7 422.7 471.3 408.3 514.2 410.5C557 412.7 600 431.3 642.8 443.2C685.7 455 728.3 460 771.2 455.7C814 451.3 857 437.7 878.5 430.8L900 424L900 601L878.5 601C857 601 814 601 771.2 601C728.3 601 685.7 601 642.8 601C600 601 557 601 514.2 601C471.3 601 428.7 601 385.8 601C343 601 300 601 257.2 601C214.3 601 171.7 601 128.8 601C86 601 43 601 21.5 601L0 601Z" fill="#1d3572"></path><path d="M0 493L21.5 495.8C43 498.7 86 504.3 128.8 503C171.7 501.7 214.3 493.3 257.2 496.8C300 500.3 343 515.7 385.8 521C428.7 526.3 471.3 521.7 514.2 519.5C557 517.3 600 517.7 642.8 522.3C685.7 527 728.3 536 771.2 529.7C814 523.3 857 501.7 878.5 490.8L900 480L900 601L878.5 601C857 601 814 601 771.2 601C728.3 601 685.7 601 642.8 601C600 601 557 601 514.2 601C471.3 601 428.7 601 385.8 601C343 601 300 601 257.2 601C214.3 601 171.7 601 128.8 601C86 601 43 601 21.5 601L0 601Z" fill="#192958"></path></svg>