<?xml version="1.0" encoding="utf-8"?>
<!-- Generator: Adobe Illustrator 27.5.0, SVG Export Plug-In . SVG Version: 6.00 Build 0)  -->
<svg version="1.1" xmlns="http://www.w3.org/2000/svg" xmlns:xlink="http://www.w3.org/1999/xlink" x="0px" y="0px"
	 viewBox="0 0 3710 3710" style="enable-background:new 0 0 3710 3710;" xml:space="preserve">
<g id="Background">
	<g>
		<g>
			<rect style="fill:#FFFFFF;" width="3710" height="3710"/>
		</g>
	</g>
</g>
<g id="Illustration">
	<g>
		<linearGradient id="SVGID_1_" gradientUnits="userSpaceOnUse" x1="3409.0349" y1="3252.4788" x2="1417.0746" y2="1509.5148">
			<stop  offset="0" style="stop-color:#DAE3FE"/>
			<stop  offset="1" style="stop-color:#E9EFFD"/>
		</linearGradient>
		<path style="fill:url(#SVGID_1_);" d="M3070.505,2347.28c-257.442,606.171-943.206,945.752-1537.903,854.152
			c-96.769-14.906-362.064-59.306-596.946-268.772c-452.164-403.238-548.863-1201.703-184.116-1764.4
			c265.472-409.544,741.357-641.702,1193.542-630.089c97.401,2.501,470.68,17.917,798.728,288.419
			c48.184,39.731,154.458,134.144,250.236,283.923C3218.951,1462.222,3238.283,1952.23,3070.505,2347.28z"/>
		<g>
			<g style="opacity:0.3;">
				<path style="fill:#91B3FA;" d="M1450.235,905.276c-5.727-0.234-10.178-5.068-9.942-10.793
					c0.455-11.124,0.436-22.432-0.061-33.613c-0.251-5.657,4.078-10.456,9.704-10.813c0.067-0.004,0.133-0.008,0.202-0.013
					c5.724-0.254,10.57,4.182,10.824,9.908c0.522,11.768,0.544,23.673,0.063,35.383c-0.218,5.354-4.463,9.595-9.696,9.927
					C1450.969,905.286,1450.603,905.293,1450.235,905.276z M1434.084,806.617c-2.014-11.003-4.519-22.024-7.446-32.766
					c-1.506-5.525,1.752-11.23,7.281-12.738c5.554-1.494,11.232,1.756,12.739,7.285c3.08,11.301,5.718,22.902,7.839,34.479
					c1.032,5.636-2.702,11.043-8.338,12.075c-0.41,0.075-0.818,0.125-1.223,0.15C1439.761,815.43,1435.041,811.844,1434.084,806.617
					z M1408.659,722.326c-4.401-10.251-9.301-20.433-14.569-30.272c-2.704-5.05-0.801-11.34,4.25-14.044
					c5.049-2.696,11.336-0.801,14.044,4.25c5.547,10.36,10.709,21.087,15.342,31.879c2.261,5.265-0.176,11.365-5.44,13.629
					c-1.123,0.481-2.283,0.75-3.436,0.823C1414.594,728.861,1410.437,726.469,1408.659,722.326z M1365.02,645.838
					c-6.589-9.019-13.647-17.854-20.975-26.267c-3.763-4.322-3.312-10.876,1.008-14.639c4.324-3.759,10.874-3.305,14.639,1.008
					c7.716,8.859,15.145,18.162,22.082,27.651c3.38,4.626,2.371,11.118-2.255,14.498c-1.655,1.21-3.549,1.858-5.454,1.979
					C1370.644,650.285,1367.192,648.807,1365.02,645.838z M1305.429,580.979c-8.407-7.312-17.247-14.37-26.275-20.968
					c-4.625-3.385-5.632-9.876-2.251-14.501c3.384-4.629,9.876-5.634,14.499-2.248c9.497,6.943,18.799,14.368,27.644,22.063
					c4.324,3.758,4.781,10.312,1.018,14.636c-1.894,2.179-4.498,3.376-7.17,3.546
					C1310.266,583.673,1307.573,582.844,1305.429,580.979z M1232.972,530.921c-9.83-5.281-20.008-10.202-30.255-14.632
					c-5.259-2.273-7.681-8.382-5.408-13.638c2.273-5.261,8.378-7.683,13.641-5.41c10.783,4.66,21.498,9.844,31.843,15.4
					c5.047,2.713,6.941,9.001,4.23,14.051c-1.761,3.279-5.033,5.225-8.493,5.445
					C1236.662,532.255,1234.742,531.873,1232.972,530.921z M847.722,526.091c-2.696-5.055-0.785-11.341,4.273-14.038
					c10.358-5.522,21.1-10.667,31.921-15.289c5.271-2.251,11.367,0.196,13.616,5.467c2.251,5.266-0.197,11.363-5.465,13.614
					c-10.275,4.388-20.473,9.275-30.309,14.521c-1.349,0.719-2.784,1.111-4.218,1.202
					C853.604,531.817,849.698,529.799,847.722,526.091z M1151.271,498.19c-10.752-2.96-21.764-5.49-32.731-7.515
					c-5.635-1.043-9.36-6.456-8.319-12.089c1.042-5.638,6.452-9.331,12.09-8.316c11.549,2.134,23.145,4.797,34.468,7.916
					c5.524,1.522,8.77,7.232,7.248,12.758c-1.206,4.381-5.05,7.33-9.345,7.603C1153.564,498.617,1152.414,498.503,1151.271,498.19z
					 M930.915,490.654c-1.496-5.53,1.777-11.228,7.308-12.724c11.33-3.062,22.943-5.675,34.514-7.774
					c5.639-1.048,11.036,2.723,12.06,8.359c1.021,5.637-2.721,11.036-8.36,12.06c-10.996,1.993-22.033,4.477-32.8,7.389
					c-0.687,0.186-1.377,0.295-2.06,0.338C936.756,498.608,932.223,495.497,930.915,490.654z M1064.321,484.542
					c-11.137-0.479-22.441-0.484-33.601-0.011c-5.726,0.245-10.563-4.199-10.807-9.926c-0.239-5.65,4.087-10.436,9.705-10.793
					c0.073-0.005,0.148-0.009,0.221-0.01c11.749-0.502,23.65-0.498,35.371,0.005c5.725,0.25,10.167,5.089,9.921,10.814
					c-0.229,5.346-4.47,9.575-9.696,9.907C1065.069,484.551,1064.696,484.554,1064.321,484.542z"/>
				<path style="fill:#91B3FA;" d="M796.62,571.523c2.039-0.129,4.062-0.859,5.784-2.227c4.189-3.328,8.518-6.62,12.865-9.795
					c4.628-3.376,5.644-9.869,2.266-14.495c-3.376-4.63-9.872-5.651-14.497-2.263c-4.574,3.336-9.126,6.801-13.535,10.301
					c-4.487,3.562-5.238,10.091-1.676,14.576C790.022,570.387,793.344,571.732,796.62,571.523z"/>
			</g>
			<g style="opacity:0.3;">
				<path style="fill:#91B3FA;" d="M645.362,849.334c4.997-0.317,9.166-4.22,9.66-9.365c0.509-5.324,1.138-10.728,1.872-16.058
					c0.781-5.678-3.188-10.913-8.864-11.693c-5.701-0.783-10.912,3.19-11.693,8.864c-0.771,5.612-1.435,11.303-1.972,16.909
					c-0.546,5.704,3.636,10.77,9.34,11.318C644.264,849.363,644.819,849.368,645.362,849.334z"/>
				<path style="fill:#91B3FA;" d="M1052.359,1292.263c-5.729,0.083-10.442-4.495-10.524-10.228
					c-0.081-5.729,4.492-10.429,10.226-10.521c10.908-0.156,21.979-0.782,33.031-1.857c5.674-0.571,10.776,3.621,11.331,9.324
					c0.555,5.703-3.619,10.776-9.322,11.333c-4.789,0.466-9.566,0.851-14.331,1.153
					C1065.974,1291.899,1059.106,1292.168,1052.359,1292.263z M1130.39,1273.328c-1.321-5.573,2.128-11.164,7.703-12.485
					c10.704-2.539,21.416-5.554,31.839-8.969c5.433-1.799,11.306,1.183,13.091,6.629c1.783,5.443-1.185,11.304-6.629,13.087
					c-10.974,3.596-22.25,6.773-33.515,9.441c-0.584,0.139-1.17,0.225-1.748,0.261
					C1136.178,1281.607,1131.574,1278.321,1130.39,1273.328z M995.904,1289.203c-11.456-1.413-23.01-3.335-34.339-5.719
					c-5.608-1.179-9.198-6.681-8.019-12.291c1.18-5.606,6.68-9.188,12.289-8.017c10.759,2.265,21.728,4.091,32.607,5.431
					c5.687,0.703,9.73,5.88,9.029,11.569c-0.621,5.03-4.747,8.772-9.629,9.082C997.208,1289.299,996.559,1289.283,995.904,1289.203z
					 M1214.931,1245.562c-2.514-5.148-0.378-11.363,4.772-13.874c9.871-4.818,19.652-10.117,29.074-15.746
					c4.922-2.944,11.287-1.338,14.228,3.584c2.939,4.918,1.335,11.286-3.582,14.225c-9.922,5.929-20.224,11.509-30.617,16.583
					c-1.257,0.612-2.575,0.951-3.889,1.035C1220.845,1251.627,1216.83,1249.454,1214.931,1245.562z M907.209,1268.083
					c-10.858-3.896-21.701-8.312-32.231-13.126c-5.211-2.382-7.504-8.535-5.124-13.746c2.382-5.215,8.539-7.507,13.75-5.125
					c10.002,4.571,20.301,8.766,30.613,12.465c5.394,1.936,8.198,7.878,6.262,13.271c-1.442,4.019-5.108,6.599-9.112,6.853
					C909.995,1268.763,908.582,1268.577,907.209,1268.083z M825.295,1228.023c-9.768-6.19-19.387-12.865-28.593-19.838
					c-4.567-3.463-5.465-9.968-2.005-14.537c3.466-4.573,9.972-5.47,14.535-2.003c8.747,6.625,17.889,12.968,27.17,18.853
					c4.84,3.067,6.277,9.478,3.209,14.318c-1.85,2.915-4.913,4.596-8.114,4.799C829.386,1229.749,827.216,1229.241,825.295,1228.023
					z M754.054,1171.062c-8.192-8.174-16.13-16.788-23.592-25.593c-3.705-4.374-3.162-10.918,1.208-14.623
					c4.378-3.709,10.92-3.162,14.623,1.208c7.09,8.37,14.632,16.55,22.419,24.319c4.056,4.047,4.063,10.618,0.016,14.672
					c-1.859,1.864-4.248,2.872-6.683,3.027C759.177,1174.254,756.248,1173.25,754.054,1171.062z M696.937,1099.918
					c-6.206-9.767-12.066-19.913-17.417-30.156c-2.654-5.078-0.688-11.348,4.393-14.001c5.07-2.649,11.345-0.684,13.999,4.395
					c5.08,9.724,10.644,19.357,16.54,28.636c3.073,4.836,1.644,11.246-3.193,14.318c-1.528,0.97-3.211,1.491-4.898,1.598
					C702.708,1104.94,699.042,1103.228,696.937,1099.918z M656.829,1017.919c-3.892-10.868-7.369-22.046-10.337-33.228
					c-1.47-5.539,1.828-11.223,7.367-12.691c5.521-1.463,11.219,1.826,12.689,7.365c2.818,10.623,6.122,21.24,9.817,31.564
					c1.932,5.392-0.877,11.333-6.271,13.263c-0.939,0.336-1.895,0.531-2.844,0.591
					C662.753,1025.068,658.423,1022.374,656.829,1017.919z M635.725,929.207c-1.055-8.441-1.864-17.019-2.401-25.492
					c-0.195-3.07-0.354-6.129-0.482-9.188c-0.238-5.723,4.133-10.666,9.934-10.795c5.724-0.241,10.56,4.207,10.799,9.934
					c0.122,2.904,0.272,5.818,0.457,8.734c0.511,8.057,1.278,16.207,2.281,24.233c0.712,5.685-3.323,10.871-9.007,11.581
					c-0.214,0.026-0.427,0.047-0.64,0.061C641.237,938.62,636.408,934.678,635.725,929.207z"/>
				<path style="fill:#91B3FA;" d="M1300.244,1203.57c2.059-0.131,4.097-0.873,5.826-2.258c4.382-3.515,8.772-7.188,13.049-10.919
					c4.319-3.767,4.767-10.321,1-14.638c-3.768-4.317-10.317-4.771-14.638-1c-4.063,3.543-8.234,7.033-12.393,10.371
					c-4.469,3.581-5.188,10.112-1.603,14.583C1293.683,1202.447,1296.988,1203.777,1300.244,1203.57z"/>
			</g>
			<g>
				<path style="fill:#91B3FA;" d="M1319.843,1026.784c1.203-1.684,1.208-3.944,0.009-5.63l-34.181-48.114
					c10.504-25.482,17.02-52.823,18.884-81.125l51.863-28.091c1.819-0.986,2.812-3.017,2.474-5.058l-11.582-69.839
					c-0.337-2.042-1.934-3.643-3.973-3.988l-58.155-9.846c-10.9-26.186-25.892-49.961-44.06-70.688l16.82-56.571
					c0.589-1.983-0.144-4.122-1.827-5.325l-57.573-41.195c-1.682-1.203-3.944-1.208-5.63-0.009l-48.114,34.181
					c-25.482-10.505-52.823-17.021-81.126-18.884l-28.09-51.862c-0.985-1.82-3.016-2.813-5.057-2.474l-69.84,11.581
					c-2.041,0.339-3.642,1.935-3.987,3.974l-9.846,58.155c-26.187,10.9-49.961,25.892-70.687,44.06l-56.572-16.821
					c-1.983-0.589-4.122,0.143-5.325,1.827l-41.195,57.573c-1.204,1.682-1.207,3.943-0.01,5.629l34.182,48.115
					c-10.505,25.482-17.02,52.822-18.884,81.125l-51.863,28.091c-1.82,0.985-2.813,3.016-2.475,5.057l11.582,69.84
					c0.339,2.041,1.935,3.642,3.974,3.987l58.155,9.846c10.9,26.186,25.893,49.961,44.06,70.688l-16.82,56.571
					c-0.59,1.982,0.143,4.121,1.826,5.326l57.574,41.194c1.682,1.203,3.943,1.207,5.629,0.009l48.114-34.181
					c25.482,10.505,52.822,17.02,81.126,18.885l28.09,51.862c0.985,1.818,3.016,2.812,5.057,2.474l69.839-11.582
					c2.041-0.339,3.643-1.934,3.988-3.974l9.846-58.153c26.186-10.9,49.96-25.893,70.687-44.06l56.572,16.82
					c1.983,0.59,4.122-0.144,5.325-1.826L1319.843,1026.784z"/>
				<g>
					<path style="fill:#BDD0FB;" d="M1040.563,945.614c-39.102-3.252-68.27-37.705-65.02-76.811
						c1.573-18.943,10.431-36.139,24.939-48.418c14.504-12.279,32.925-18.18,51.87-16.6c39.103,3.252,68.27,37.706,65.02,76.811
						c-2.958,35.575-31.742,62.925-66.36,65.122C1047.581,945.936,1044.088,945.906,1040.563,945.614z M1011.207,833.056
						c-11.124,9.417-17.914,22.599-19.122,37.125c-2.491,29.978,19.873,56.4,49.852,58.891c29.988,2.503,56.4-19.873,58.893-49.854
						c2.491-29.978-19.873-56.4-49.852-58.891c-2.719-0.225-5.419-0.249-8.092-0.079
						C1031.276,820.984,1020.248,825.404,1011.207,833.056z"/>
				</g>
				<path style="fill:#BDD0FB;" d="M1056.071,1048.383c5.945-0.377,11.907-1.056,17.864-2.043l0,0
					c1.875-0.31,3.746-0.652,5.61-1.022c9.194-1.83,18.227-4.389,26.961-7.636c0.119-0.044,0.238-0.088,0.357-0.132
					c0.337-0.127,0.674-0.254,1.011-0.385c0.656-0.249,1.31-0.506,1.962-0.762c1.715-0.677,2.727-2.37,2.618-4.118
					c-0.027-0.425-0.121-0.853-0.286-1.269c-0.842-2.131-3.255-3.168-5.385-2.33c-10.967,4.339-22.475,7.522-34.206,9.464
					c-58.264,9.672-114.592-12.288-151.405-53.273c-20.479-22.794-34.917-51.478-40.289-83.884
					c-0.944-5.682-1.593-11.371-1.951-17.042c-2.418-38.165,8.274-75.689,30.828-107.208
					c25.905-36.207,64.361-60.159,108.279-67.442c90.705-15.033,176.66,46.497,191.694,137.157
					c0.927,5.59,1.568,11.206,1.922,16.824c1.541,24.345-2.262,48.757-11.222,71.47c-0.231,0.587-0.32,1.194-0.281,1.784
					c0.099,1.553,1.073,2.99,2.619,3.598c2.136,0.835,4.544-0.199,5.384-2.339c9.406-23.846,13.402-49.477,11.784-75.035
					c-0.372-5.897-1.045-11.791-2.016-17.659c-15.784-95.186-106.089-159.769-201.24-143.991
					c-46.108,7.646-86.476,32.791-113.671,70.801C879.334,805,868.111,844.393,870.648,884.46c0.378,5.954,1.06,11.925,2.047,17.888
					c7.648,46.11,32.791,86.48,70.8,113.676C976.591,1039.706,1015.996,1050.927,1056.071,1048.383z"/>
			</g>
		</g>
		<g>
			<g style="opacity:0.3;">
				<path style="fill:#91B3FA;" d="M2965.312,1085.303c2.61-0.166,4.906-2.021,5.51-4.703c1.131-5.005,2.126-10.113,2.955-15.182
					c0.539-3.293-1.692-6.399-4.989-6.941c-3.297-0.553-6.402,1.696-6.941,4.989c-0.79,4.83-1.738,9.698-2.816,14.475
					c-0.737,3.253,1.308,6.488,4.564,7.228C2964.173,1085.299,2964.75,1085.339,2965.312,1085.303z"/>
				<path style="fill:#91B3FA;" d="M2970.729,1039.209c-3.335-0.131-5.935-2.936-5.807-6.274c0.32-8.419,0.213-16.953-0.32-25.36
					c-0.112-1.773-0.247-3.551-0.398-5.334c-0.279-3.324,2.188-6.249,5.515-6.531c3.156-0.141,6.249,2.188,6.534,5.518
					c0.156,1.865,0.296,3.725,0.414,5.581c0.559,8.813,0.672,17.76,0.333,26.59c-0.118,3.124-2.593,5.606-5.65,5.8
					C2971.146,1039.212,2970.939,1039.213,2970.729,1039.209z M2959.76,971.868c-2.093-9.999-4.822-19.958-8.116-29.597
					c-1.079-3.161,0.604-6.592,3.765-7.674c3.144-1.069,6.595,0.604,7.674,3.765c3.453,10.102,6.317,20.543,8.508,31.028
					c0.683,3.268-1.411,6.471-4.68,7.158c-0.286,0.059-0.577,0.095-0.862,0.114C2963.098,976.849,2960.383,974.845,2959.76,971.868z
					 M2939.924,913.897c-4.471-9.168-9.566-18.148-15.145-26.702c-1.822-2.794-1.034-6.541,1.761-8.363
					c2.806-1.828,6.541-1.042,8.366,1.758c5.851,8.967,11.193,18.394,15.884,28.003c1.462,3,0.219,6.622-2.781,8.085
					c-0.732,0.354-1.5,0.551-2.266,0.599C2943.371,917.428,2941.032,916.163,2939.924,913.897z M2906.45,862.57
					c-6.593-7.803-13.733-15.269-21.213-22.177c-2.454-2.269-2.605-6.092-0.338-8.543c2.261-2.444,6.086-2.604,8.54-0.341
					c7.847,7.25,15.329,15.074,22.246,23.258c2.155,2.549,1.832,6.366-0.717,8.521c-1.031,0.864-2.263,1.332-3.512,1.412
					C2909.61,864.818,2907.736,864.092,2906.45,862.57z M2861.46,820.971c-8.289-5.962-17.023-11.465-25.963-16.363
					c-2.926-1.6-3.999-5.276-2.396-8.205s5.276-4.008,8.206-2.396c9.369,5.131,18.525,10.902,27.214,17.147
					c2.708,1.951,3.326,5.727,1.378,8.435c-1.101,1.531-2.785,2.395-4.529,2.505C2864.024,822.18,2862.641,821.818,2861.46,820.971z
					 M2807.736,791.554c-9.481-3.763-19.283-6.968-29.143-9.524c-3.229-0.836-5.171-4.137-4.333-7.367
					c0.839-3.229,4.126-5.165,7.369-4.336c10.338,2.68,20.624,6.043,30.569,9.99c3.101,1.234,4.619,4.746,3.388,7.846
					c-0.893,2.245-2.979,3.661-5.239,3.805C2809.483,792.023,2808.594,791.896,2807.736,791.554z M2748.473,776.175
					c-10.083-1.318-20.383-2.019-30.617-2.079c-3.337-0.024-6.027-2.746-6.005-6.084c0.018-3.337,2.738-5.976,6.083-6.011
					c10.728,0.071,21.528,0.804,32.102,2.186c3.31,0.434,5.644,3.468,5.212,6.779c-0.38,2.911-2.778,5.068-5.605,5.247
					C2749.26,776.237,2748.869,776.227,2748.473,776.175z M2649.688,776.791c-0.792-3.244,1.195-6.511,4.44-7.303
					c8.978-2.191,18.231-3.925,27.475-5.157c1.404-0.195,2.804-0.367,4.207-0.533c3.287-0.481,6.318,1.988,6.698,5.312
					c0.385,3.317-1.992,6.313-5.309,6.701c-1.316,0.149-2.633,0.315-3.972,0.501c-8.848,1.176-17.674,2.831-26.236,4.918
					c-0.353,0.087-0.707,0.139-1.055,0.161C2653.065,781.575,2650.392,779.68,2649.688,776.791z"/>
			</g>
			<g style="opacity:0.3;">
				<path style="fill:#91B3FA;" d="M2729.011,1283.854c-10.521,0.532-21.166,0.42-31.64-0.316c-3.328-0.238-5.838-3.125-5.603-6.458
					c0.235-3.333,3.147-5.807,6.458-5.603c9.988,0.708,20.141,0.809,30.179,0.302c3.334-0.17,6.173,2.4,6.341,5.731
					c0.166,3.307-2.358,6.13-5.651,6.339C2729.067,1283.851,2729.037,1283.853,2729.011,1283.854z M2753.498,1275.427
					c-0.566-3.288,1.643-6.415,4.931-6.979c9.896-1.704,19.789-4.024,29.405-6.9c3.182-0.942,6.567,0.86,7.521,4.065
					c0.957,3.198-0.861,6.561-4.059,7.521c-10.077,3.011-20.445,5.444-30.816,7.226c-0.219,0.037-0.433,0.063-0.652,0.077
					C2756.789,1280.63,2754.028,1278.505,2753.498,1275.427z M2665.979,1279.374c-10.343-2.029-20.651-4.705-30.635-7.957
					c-3.174-1.035-4.91-4.449-3.875-7.62c1.031-3.177,4.433-4.901,7.617-3.879c9.524,3.105,19.354,5.657,29.222,7.597
					c3.276,0.644,5.409,3.821,4.768,7.091c-0.541,2.755-2.872,4.701-5.546,4.871
					C2667.023,1279.508,2666.504,1279.476,2665.979,1279.374z M2813.065,1259.107c-1.341-3.056,0.053-6.622,3.109-7.963
					c9.196-4.032,18.232-8.669,26.862-13.789c2.87-1.696,6.58-0.749,8.281,2.112c1.702,2.873,0.758,6.582-2.115,8.285
					c-9.049,5.371-18.529,10.237-28.174,14.464c-0.668,0.291-1.358,0.453-2.044,0.496
					C2816.521,1262.868,2814.113,1261.495,2813.065,1259.107z M2605.921,1259.799c-9.53-4.446-18.887-9.525-27.817-15.091
					c-2.833-1.766-3.697-5.497-1.93-8.33c1.766-2.833,5.493-3.703,8.33-1.931c8.514,5.315,17.439,10.155,26.53,14.392
					c3.023,1.411,4.334,5.007,2.92,8.036c-0.965,2.073-2.964,3.341-5.1,3.476C2607.88,1260.413,2606.872,1260.241,2605.921,1259.799
					z M2552.304,1226.383c-8.204-6.613-16.079-13.784-23.406-21.31c-2.328-2.39-2.278-6.214,0.114-8.542
					c2.387-2.328,6.217-2.281,8.549,0.114c6.988,7.175,14.502,14.014,22.332,20.325c2.599,2.094,3.007,5.901,0.912,8.5
					c-1.107,1.372-2.692,2.135-4.327,2.239C2555.022,1227.802,2553.528,1227.369,2552.304,1226.383z M2508.226,1181.088
					c-6.388-8.39-12.315-17.246-17.616-26.315c-1.685-2.885-0.714-6.585,2.169-8.27c2.88-1.685,6.583-0.708,8.267,2.166
					c5.053,8.652,10.706,17.094,16.8,25.089c2.023,2.657,1.51,6.452-1.148,8.472c-0.984,0.754-2.124,1.152-3.273,1.225
					C2511.475,1183.578,2509.5,1182.758,2508.226,1181.088z"/>
				<path style="fill:#91B3FA;" d="M2872.324,1231.048c1.164-0.074,2.317-0.484,3.31-1.251c4.093-3.164,8.11-6.465,11.943-9.807
					c2.514-2.195,2.777-6.014,0.583-8.531c-2.197-2.504-6.011-2.771-8.531-0.582c-3.654,3.189-7.488,6.337-11.392,9.359
					c-2.641,2.042-3.125,5.841-1.083,8.479C2868.43,1230.361,2870.388,1231.171,2872.324,1231.048z"/>
			</g>
			<g>
				<path style="fill:#91B3FA;" d="M2888.364,1117.097c0.759-1.063,0.762-2.489,0.006-3.554l-21.574-30.37
					c6.63-16.084,10.742-33.341,11.919-51.205l32.735-17.731c1.148-0.622,1.775-1.904,1.562-3.192l-7.311-44.081
					c-0.213-1.289-1.221-2.3-2.507-2.517l-36.707-6.214c-6.88-16.529-16.343-31.535-27.81-44.618l10.616-35.707
					c0.373-1.252-0.091-2.602-1.153-3.362l-36.34-26.001c-1.062-0.76-2.489-0.763-3.554-0.006l-30.368,21.574
					c-16.084-6.631-33.341-10.743-51.206-11.919l-17.73-32.735c-0.622-1.148-1.904-1.776-3.192-1.562l-44.083,7.31
					c-1.289,0.214-2.298,1.221-2.517,2.508l-6.215,36.707c-16.529,6.88-31.535,16.343-44.617,27.81l-35.708-10.617
					c-1.251-0.372-2.602,0.091-3.361,1.153l-26.002,36.34c-0.76,1.062-0.761,2.489-0.006,3.553l21.575,30.37
					c-6.631,16.083-10.743,33.34-11.919,51.205l-32.735,17.731c-1.148,0.621-1.776,1.903-1.562,3.192l7.31,44.082
					c0.214,1.288,1.221,2.299,2.509,2.517l36.706,6.214c6.88,16.529,16.344,31.535,27.811,44.618l-10.617,35.707
					c-0.373,1.251,0.091,2.601,1.153,3.362l36.34,26.001c1.062,0.76,2.489,0.762,3.554,0.006l30.369-21.575
					c16.084,6.63,33.341,10.743,51.206,11.919l17.73,32.735c0.622,1.148,1.904,1.775,3.192,1.562l44.082-7.311
					c1.288-0.214,2.299-1.221,2.517-2.509l6.215-36.706c16.529-6.88,31.534-16.344,44.617-27.81l35.708,10.617
					c1.251,0.372,2.602-0.091,3.361-1.153L2888.364,1117.097z"/>
				<g>
					<path style="fill:#BDD0FB;" d="M2712.022,1066.667c-12.174-1.008-23.224-6.7-31.114-16.024
						c-7.89-9.318-11.679-21.155-10.666-33.327c2.087-25.122,24.192-43.826,49.354-41.779c25.125,2.096,43.864,24.234,41.773,49.351
						c-1.01,12.172-6.7,23.221-16.021,31.111c-7.577,6.413-16.818,10.117-26.55,10.734
						C2716.563,1066.875,2714.296,1066.854,2712.022,1066.667z M2682.289,1018.314c-0.745,8.955,2.041,17.662,7.847,24.521
						c5.802,6.854,13.932,11.04,22.884,11.785l0,0c8.954,0.733,17.659-2.044,24.518-7.85c6.856-5.8,11.04-13.932,11.785-22.881
						c1.536-18.481-12.247-34.764-30.727-36.306c-1.668-0.136-3.316-0.15-4.939-0.047
						C2697.294,988.575,2683.686,1001.505,2682.289,1018.314z"/>
				</g>
				<path style="fill:#BDD0FB;" d="M2722.208,1134.135c3.817-0.242,7.652-0.681,11.503-1.316c7.647-1.266,15.174-3.311,22.388-6.088
					c0.323-0.127,0.646-0.254,0.97-0.381c2.499-0.987,3.971-3.452,3.813-5.997c-0.039-0.618-0.176-1.242-0.416-1.848
					c-1.227-3.104-4.741-4.609-7.843-3.394c-6.71,2.656-13.738,4.598-20.885,5.78l-0.003,0c-0.392,0.066-0.787,0.126-1.177,0.187
					c-16.94,2.643-33.898,0.963-49.625-4.663c-8.536-3.055-16.713-7.279-24.324-12.622c-0.062-0.043-0.124-0.087-0.186-0.13
					c-0.189-0.136-0.378-0.266-0.564-0.402c-22.108-15.821-36.735-39.302-41.182-66.121c-0.578-3.471-0.973-6.942-1.193-10.405
					c-1.476-23.305,5.054-46.219,18.826-65.47c15.821-22.108,39.303-36.73,66.119-41.176c26.802-4.434,53.765,1.816,75.875,17.631
					c22.108,15.82,36.735,39.302,41.182,66.121c0.568,3.412,0.958,6.842,1.175,10.27c0.941,14.869-1.381,29.774-6.853,43.642
					c-0.336,0.855-0.467,1.739-0.409,2.599c0.143,2.262,1.563,4.355,3.813,5.241c3.109,1.216,6.615-0.296,7.843-3.408
					c6.121-15.518,8.721-32.197,7.671-48.828c-0.244-3.841-0.679-7.675-1.312-11.492c-4.977-30.009-21.34-56.279-46.078-73.978
					c-24.735-17.695-54.867-24.725-84.884-19.726c-30.006,4.974-56.276,21.334-73.973,46.075
					c-15.41,21.532-22.714,47.169-21.062,73.243c0.246,3.87,0.688,7.758,1.33,11.638
					C2612.387,1097.206,2664.659,1137.788,2722.208,1134.135z"/>
			</g>
		</g>
		<g>
			
				<linearGradient id="SVGID_00000123406755623780872270000011214075243160049026_" gradientUnits="userSpaceOnUse" x1="1936.59" y1="2832.2878" x2="1708.7759" y2="3756.9448">
				<stop  offset="0" style="stop-color:#09005D"/>
				<stop  offset="1" style="stop-color:#1A0F91"/>
			</linearGradient>
			<polygon style="fill:url(#SVGID_00000123406755623780872270000011214075243160049026_);" points="1651.057,2703.367 
				1601.524,3147.606 2176.199,3147.606 2101.347,2703.367 			"/>
			
				<linearGradient id="SVGID_00000012441748887877562480000006657648646097084583_" gradientUnits="userSpaceOnUse" x1="1931.5537" y1="920.0497" x2="1784.1462" y2="2776.0586">
				<stop  offset="0" style="stop-color:#09005D"/>
				<stop  offset="1" style="stop-color:#1A0F91"/>
			</linearGradient>
			<path style="fill:url(#SVGID_00000012441748887877562480000006657648646097084583_);" d="M702.355,1496.793
				c-66.45,1.492-119.51,55.772-119.51,122.239v1108.663c0,91.203,72.678,165.784,163.85,168.135
				c404.938,10.442,1821.215,35.761,2206.689,30.079c66.252-0.977,119.923-53.995,121.835-120.227
				c7.433-257.558,19.505-876.897-25.169-1164.433c-9.408-60.552-60.519-105.831-121.766-107.79
				C2588.996,1522.605,1087.649,1488.14,702.355,1496.793z"/>
			
				<linearGradient id="SVGID_00000121269812661792285310000011209514285525250181_" gradientUnits="userSpaceOnUse" x1="652.4107" y1="2164.7144" x2="2997.7761" y2="2164.7144">
				<stop  offset="0" style="stop-color:#4F52FF"/>
				<stop  offset="1" style="stop-color:#4042E2"/>
			</linearGradient>
			<path style="fill:url(#SVGID_00000121269812661792285310000011209514285525250181_);" d="M729.387,1538.509
				c-42.207-1.027-76.977,32.907-76.977,75.126v1053.307c0,53.249,42.744,96.637,95.988,97.433l2149.529,26.556
				c52.786,0.789,96.056-41.679,96.252-94.472l3.596-1043.896c0.14-37.748-29.933-68.677-67.669-69.595L729.387,1538.509z"/>
			<path style="fill:#91B3FA;" d="M3010.364,2834.723c-0.021,0-0.042,0-0.063,0l-2357.951-40.178
				c-1.99-0.035-3.576-1.675-3.542-3.666c0.033-1.99,1.661-3.607,3.666-3.542l2357.951,40.178c1.99,0.035,3.576,1.675,3.542,3.666
				C3013.932,2833.15,3012.324,2834.723,3010.364,2834.723z"/>
			<path style="fill:#91B3FA;" d="M1854.646,2883.79c-15.515,0-28.138-12.623-28.138-28.136c0-15.515,12.622-28.138,28.138-28.138
				c15.516,0,28.138,12.623,28.138,28.138C1882.784,2871.167,1870.162,2883.79,1854.646,2883.79z M1854.646,2834.723
				c-11.54,0-20.93,9.39-20.93,20.93s9.39,20.928,20.93,20.928c11.54,0,20.93-9.388,20.93-20.928
				S1866.187,2834.723,1854.646,2834.723z"/>
			<path style="fill:#91B3FA;" d="M2840.394,1946.082c0.231-34.868-28.195-63.139-63.061-62.717l-1971.01,23.852
				c-29.11,0.353-52.577,23.953-52.765,53.066l-5.16,804.092l2086.396,26.567L2840.394,1946.082z"/>
			<path style="fill:#7D97F4;" d="M2798.785,1657.488l-1988.934-25.745c-23.202-0.3-42.355,15.085-42.908,34.468l-3.97,139.013
				c-0.574,20.051,18.932,36.475,42.936,36.151l1992.903-26.869c23.075-0.311,41.585-16.028,41.585-35.309v-86.401
				C2840.396,1673.507,2821.87,1657.787,2798.785,1657.488z"/>
			<g>
				<circle style="opacity:0.63;fill:#FFFFFF;" cx="901.473" cy="2384.092" r="89.143"/>
				<circle style="opacity:0.63;fill:#FFFFFF;" cx="1145.476" cy="2384.092" r="89.143"/>
				<circle style="opacity:0.63;fill:#FFFFFF;" cx="1389.479" cy="2387.01" r="89.143"/>
				
					<linearGradient id="SVGID_00000035514660802159767200000015103616776902150018_" gradientUnits="userSpaceOnUse" x1="954.2894" y1="2178.384" x2="1021.2935" y2="1913.7184">
					<stop  offset="0" style="stop-color:#4F52FF"/>
					<stop  offset="1" style="stop-color:#4042E2"/>
				</linearGradient>
				<path style="fill:url(#SVGID_00000035514660802159767200000015103616776902150018_);" d="M954.441,2365.252
					c2.759,6.709,4.291,14.054,4.291,21.758c0,31.623-25.636,57.259-57.259,57.259c-31.624,0-57.259-25.636-57.259-57.259
					c0-31.624,25.636-57.259,57.259-57.259c0.969,0,1.931,0.026,2.888,0.073v-14.515c-0.959-0.038-1.92-0.063-2.888-0.063
					c-39.634,0-71.764,32.13-71.764,71.764c0,39.634,32.13,71.763,71.764,71.763c39.634,0,71.763-32.13,71.763-71.763
					c0-9.759-1.952-19.062-5.48-27.542L954.441,2365.252z"/>
				
					<linearGradient id="SVGID_00000117675420216595375810000015083257700586781855_" gradientUnits="userSpaceOnUse" x1="1172.8708" y1="2233.7222" x2="1239.875" y2="1969.0565">
					<stop  offset="0" style="stop-color:#4F52FF"/>
					<stop  offset="1" style="stop-color:#4042E2"/>
				</linearGradient>
				<path style="fill:url(#SVGID_00000117675420216595375810000015083257700586781855_);" d="M1175.014,2435.455
					c-8.835,5.575-19.291,8.814-30.51,8.814c-31.624,0-57.259-25.636-57.259-57.259c0-31.624,25.636-57.259,57.259-57.259
					c0.969,0,1.931,0.026,2.888,0.073v-14.515c-0.958-0.038-1.92-0.063-2.888-0.063c-39.634,0-71.764,32.13-71.764,71.764
					c0,39.634,32.13,71.763,71.764,71.763c13.832,0,26.748-3.917,37.705-10.698L1175.014,2435.455z"/>
				
					<linearGradient id="SVGID_00000020360080052161867820000015024556563955659960_" gradientUnits="userSpaceOnUse" x1="1411.1285" y1="2294.0393" x2="1478.1327" y2="2029.3738">
					<stop  offset="0" style="stop-color:#4F52FF"/>
					<stop  offset="1" style="stop-color:#4042E2"/>
				</linearGradient>
				<path style="fill:url(#SVGID_00000020360080052161867820000015024556563955659960_);" d="M1437.262,2419.203
					c-10.305,15.129-27.667,25.066-47.353,25.066c-31.624,0-57.259-25.636-57.259-57.259c0-31.624,25.636-57.259,57.259-57.259
					c0.969,0,1.931,0.026,2.888,0.073v-14.515c-0.958-0.038-1.921-0.063-2.888-0.063c-39.634,0-71.764,32.13-71.764,71.764
					c0,39.634,32.13,71.763,71.764,71.763c24.518,0,46.161-12.299,59.106-31.061L1437.262,2419.203z"/>
				
					<linearGradient id="SVGID_00000058562695022439044580000003791269042296561320_" gradientUnits="userSpaceOnUse" x1="931.5156" y1="2384.9946" x2="996.8448" y2="2075.1003">
					<stop  offset="0" style="stop-color:#4F52FF"/>
					<stop  offset="1" style="stop-color:#4042E2"/>
				</linearGradient>
				<path style="fill:url(#SVGID_00000058562695022439044580000003791269042296561320_);" d="M974.106,2510.996H828.839
					c-9.118,0-16.51,7.392-16.51,16.51c0,9.118,7.392,16.509,16.51,16.509h145.267c9.118,0,16.51-7.392,16.51-16.509
					C990.616,2518.387,983.224,2510.996,974.106,2510.996z"/>
				
					<linearGradient id="SVGID_00000017498329550219862280000016722842316768715139_" gradientUnits="userSpaceOnUse" x1="1165.1367" y1="2434.2449" x2="1230.4659" y2="2124.3506">
					<stop  offset="0" style="stop-color:#4F52FF"/>
					<stop  offset="1" style="stop-color:#4042E2"/>
				</linearGradient>
				<path style="fill:url(#SVGID_00000017498329550219862280000016722842316768715139_);" d="M1218.109,2510.996h-145.267
					c-9.118,0-16.509,7.392-16.509,16.51c0,9.118,7.392,16.509,16.509,16.509h145.267c9.118,0,16.51-7.392,16.51-16.509
					C1234.619,2518.387,1227.228,2510.996,1218.109,2510.996z"/>
				
					<linearGradient id="SVGID_00000139271474778571548470000009266770990247704471_" gradientUnits="userSpaceOnUse" x1="1398.7576" y1="2483.4944" x2="1464.0868" y2="2173.5999">
					<stop  offset="0" style="stop-color:#4F52FF"/>
					<stop  offset="1" style="stop-color:#4042E2"/>
				</linearGradient>
				<path style="fill:url(#SVGID_00000139271474778571548470000009266770990247704471_);" d="M1316.846,2544.015h145.267
					c9.118,0,16.51-7.392,16.51-16.509c0-9.118-7.392-16.51-16.51-16.51h-145.267c-9.118,0-16.51,7.392-16.51,16.51
					C1300.337,2536.623,1307.728,2544.015,1316.846,2544.015z"/>
				<path style="opacity:0.63;fill:#FFFFFF;" d="M974.106,2562.359H828.839c-9.118,0-16.51,7.392-16.51,16.51v97.223
					c0,9.118,7.392,16.51,16.51,16.51h145.267c9.118,0,16.51-7.392,16.51-16.51v-97.223
					C990.616,2569.751,983.224,2562.359,974.106,2562.359z"/>
				<path style="opacity:0.63;fill:#FFFFFF;" d="M1234.619,2578.869c0-9.118-7.392-16.51-16.51-16.51h-145.267
					c-9.118,0-16.509,7.392-16.509,16.51v97.223c0,9.118,7.392,16.51,16.509,16.51h145.267c9.118,0,16.51-7.392,16.51-16.51
					V2578.869z"/>
				<path style="opacity:0.63;fill:#FFFFFF;" d="M1478.622,2578.869c0-9.118-7.392-16.51-16.51-16.51h-145.267
					c-9.118,0-16.51,7.392-16.51,16.51v97.223c0,9.118,7.392,16.51,16.51,16.51h145.267c9.118,0,16.51-7.392,16.51-16.51V2578.869z"
					/>
			</g>
			<g>
				<path style="fill:#7D97F4;" d="M2702.364,1964.906l-1106.788-5.321c-13.339-0.122-24.172,14.633-24.071,32.785l2.452,437.898
					c0.102,18.255,11.219,32.823,24.628,32.275l1100.48-23.568c12.802-0.524,23.026-14.679,23.191-32.106l3.856-409.009
					C2726.282,1979.814,2715.626,1965.027,2702.364,1964.906z"/>
				<g>
					<path style="fill:#BDD0FB;" d="M1597.891,2434.841c-2.267,0-4.026-2.103-4.044-4.788l-2.451-437.894
						c-0.005-1.23,0.327-2.316,0.987-3.226c0.774-1.054,1.853-1.631,3.046-1.631l1106.799,5.321c1.188,0.01,2.258,0.596,3.02,1.652
						c0.649,0.901,0.987,2.017,0.975,3.225l-3.856,409.003c-0.026,2.633-1.696,4.681-3.885,4.764l-0.03,0.002L1597.891,2434.841z
						 M1595.42,1990.906c-0.324,0.424-0.422,0.781-0.42,1.235l2.451,437.889c0.005,0.72,0.327,1.156,0.459,1.218l1100.411-23.58
						c0.137-0.076,0.435-0.496,0.441-1.198l3.856-409.005c0.005-0.445-0.092-0.799-0.294-1.08L1595.42,1990.906z"/>
				</g>
				<g style="opacity:0.6;">
					
						<rect x="1987.29" y="2250.323" transform="matrix(6.123234e-17 -1 1 6.123234e-17 -382.0299 4374.3828)" style="fill:#FFFFFF;" width="17.774" height="255.766"/>
					
						<rect x="2031.241" y="2264.576" transform="matrix(6.123234e-17 -1 1 6.123234e-17 -308.3798 4388.6362)" style="fill:#FFFFFF;" width="17.774" height="167.863"/>
					
						<rect x="1922.618" y="2126.255" transform="matrix(6.123234e-17 -1 1 6.123234e-17 -387.3042 4250.3145)" style="fill:#FFFFFF;" width="17.774" height="385.109"/>
					
						<rect x="2068.914" y="2242.852" transform="matrix(6.123234e-17 -1 1 6.123234e-17 -211.3098 4366.9116)" style="fill:#FFFFFF;" width="17.774" height="92.518"/>
					
						<rect x="1948.361" y="2092.6" transform="matrix(6.123234e-17 -1 1 6.123234e-17 -302.1638 4216.6602)" style="fill:#FFFFFF;" width="17.774" height="333.623"/>
					
						<rect x="1977.243" y="2091.784" transform="matrix(6.123234e-17 -1 1 6.123234e-17 -243.583 4215.8438)" style="fill:#FFFFFF;" width="17.774" height="275.858"/>
					
						<rect x="2008.638" y="2093.48" transform="matrix(6.123234e-17 -1 1 6.123234e-17 -182.4904 4217.5396)" style="fill:#FFFFFF;" width="17.774" height="213.07"/>
					
						<rect x="1883.689" y="1938.833" transform="matrix(6.123234e-17 -1 1 6.123234e-17 -277.7395 4062.8928)" style="fill:#FFFFFF;" width="17.774" height="462.966"/>
					
						<rect x="1908.177" y="1933.622" transform="matrix(6.123234e-17 -1 1 6.123234e-17 -223.5535 4057.6814)" style="fill:#FFFFFF;" width="17.774" height="413.991"/>
					
						<rect x="1945.222" y="1940.968" transform="matrix(6.123234e-17 -1 1 6.123234e-17 -156.8103 4065.0276)" style="fill:#FFFFFF;" width="17.774" height="339.902"/>
					
						<rect x="2073.207" y="2039.255" transform="matrix(6.123234e-17 -1 1 6.123234e-17 0.8737 4163.3145)" style="fill:#FFFFFF;" width="17.774" height="83.931"/>
					<path style="fill:#FFFFFF;" d="M2124.06,2042.635v17.774h-246.976c0-9.816,7.958-17.774,17.774-17.774H2124.06z"/>
				</g>
				<g style="opacity:0.6;">
					
						<rect x="2304.852" y="2250.323" transform="matrix(6.123234e-17 -1 1 6.123234e-17 -64.4678 4691.9453)" style="fill:#FFFFFF;" width="17.774" height="255.766"/>
					
						<rect x="2260.9" y="2264.576" transform="matrix(6.123234e-17 -1 1 6.123234e-17 -78.7208 4618.2949)" style="fill:#FFFFFF;" width="17.774" height="167.863"/>
					
						<rect x="2369.523" y="2126.255" transform="matrix(6.123234e-17 -1 1 6.123234e-17 59.6007 4697.2192)" style="fill:#FFFFFF;" width="17.774" height="385.109"/>
					
						<rect x="2223.227" y="2242.852" transform="matrix(6.123234e-17 -1 1 6.123234e-17 -56.9962 4521.2251)" style="fill:#FFFFFF;" width="17.774" height="92.518"/>
					
						<rect x="2343.78" y="2092.6" transform="matrix(6.123234e-17 -1 1 6.123234e-17 93.2551 4612.0791)" style="fill:#FFFFFF;" width="17.774" height="333.623"/>
					
						<rect x="2314.897" y="2091.784" transform="matrix(6.123234e-17 -1 1 6.123234e-17 94.0711 4553.498)" style="fill:#FFFFFF;" width="17.774" height="275.858"/>
					
						<rect x="2283.504" y="2093.479" transform="matrix(6.123234e-17 -1 1 6.123234e-17 92.3759 4492.4058)" style="fill:#FFFFFF;" width="17.774" height="213.071"/>
					
						<rect x="2408.451" y="1938.833" transform="matrix(6.123234e-17 -1 1 6.123234e-17 247.0224 4587.6548)" style="fill:#FFFFFF;" width="17.774" height="462.966"/>
					
						<rect x="2383.964" y="1933.622" transform="matrix(6.123234e-17 -1 1 6.123234e-17 252.2338 4533.4688)" style="fill:#FFFFFF;" width="17.774" height="413.991"/>
					
						<rect x="2346.919" y="1940.968" transform="matrix(6.123234e-17 -1 1 6.123234e-17 244.8876 4466.7256)" style="fill:#FFFFFF;" width="17.774" height="339.902"/>
					
						<rect x="2218.934" y="2039.255" transform="matrix(6.123234e-17 -1 1 6.123234e-17 146.6008 4309.0415)" style="fill:#FFFFFF;" width="17.774" height="83.931"/>
					
						<rect x="2300.456" y="1928.034" transform="matrix(6.123234e-17 -1 1 6.123234e-17 257.8218 4360.8647)" style="fill:#FFFFFF;" width="17.774" height="246.976"/>
				</g>
			</g>
			<g>
				<path style="opacity:0.64;fill:#FFFFFF;" d="M1567.38,2533.942L1567.38,2533.942c0,7.767,9.165,14.063,20.469,14.063h1111.555
					c11.304,0,20.468-6.296,20.468-14.063l0,0c0-7.767-9.164-14.063-20.468-14.063H1587.85
					C1576.545,2519.879,1567.38,2526.175,1567.38,2533.942z"/>
				<path style="opacity:0.64;fill:#FFFFFF;" d="M1567.38,2581.885L1567.38,2581.885c0,7.767,9.165,14.063,20.469,14.063h1111.555
					c11.304,0,20.468-6.296,20.468-14.063l0,0c0-7.767-9.164-14.063-20.468-14.063H1587.85
					C1576.545,2567.821,1567.38,2574.118,1567.38,2581.885z"/>
				<path style="opacity:0.64;fill:#FFFFFF;" d="M1567.38,2629.826L1567.38,2629.826c0,7.767,9.165,14.063,20.469,14.063h1111.555
					c11.304,0,20.468-6.296,20.468-14.063l0,0c0-7.767-9.164-14.063-20.468-14.063H1587.85
					C1576.545,2615.763,1567.38,2622.059,1567.38,2629.826z"/>
				<path style="opacity:0.64;fill:#FFFFFF;" d="M1567.38,2677.769L1567.38,2677.769c0,7.767,9.165,14.063,20.469,14.063h1111.555
					c11.304,0,20.468-6.296,20.468-14.063l0,0c0-7.767-9.164-14.063-20.468-14.063H1587.85
					C1576.545,2663.705,1567.38,2670.001,1567.38,2677.769z"/>
			</g>
			<g>
				<path style="opacity:0.64;fill:#FFFFFF;" d="M816.571,2000.421L816.571,2000.421c0,7.767,1.35,14.063,3.016,14.063h163.772
					c1.666,0,3.016-6.296,3.016-14.063l0,0c0-7.767-1.35-14.064-3.016-14.064H819.586
					C817.921,1986.357,816.571,1992.653,816.571,2000.421z"/>
				<path style="opacity:0.64;fill:#FFFFFF;" d="M816.571,2048.363L816.571,2048.363c0,7.767,1.35,14.063,3.016,14.063h163.772
					c1.666,0,3.016-6.296,3.016-14.063l0,0c0-7.767-1.35-14.064-3.016-14.064H819.586
					C817.921,2034.299,816.571,2040.595,816.571,2048.363z"/>
				<path style="opacity:0.64;fill:#FFFFFF;" d="M816.571,2096.305L816.571,2096.305c0,7.767,1.35,14.063,3.016,14.063h163.772
					c1.666,0,3.016-6.296,3.016-14.063l0,0c0-7.767-1.35-14.063-3.016-14.063H819.586
					C817.921,2082.241,816.571,2088.537,816.571,2096.305z"/>
				<path style="opacity:0.64;fill:#FFFFFF;" d="M816.571,2144.247L816.571,2144.247c0,7.767,1.35,14.063,3.016,14.063h163.772
					c1.666,0,3.016-6.296,3.016-14.063l0,0c0-7.767-1.35-14.063-3.016-14.063H819.586
					C817.921,2130.183,816.571,2136.479,816.571,2144.247z"/>
			</g>
			<g>
				<path style="opacity:0.64;fill:#FFFFFF;" d="M1060.574,2000.421L1060.574,2000.421c0,7.767,1.35,14.063,3.016,14.063h163.772
					c1.666,0,3.016-6.296,3.016-14.063l0,0c0-7.767-1.35-14.064-3.016-14.064H1063.59
					C1061.925,1986.357,1060.574,1992.653,1060.574,2000.421z"/>
				<path style="opacity:0.64;fill:#FFFFFF;" d="M1060.574,2048.363L1060.574,2048.363c0,7.767,1.35,14.063,3.016,14.063h163.772
					c1.666,0,3.016-6.296,3.016-14.063l0,0c0-7.767-1.35-14.064-3.016-14.064H1063.59
					C1061.925,2034.299,1060.574,2040.595,1060.574,2048.363z"/>
				<path style="opacity:0.64;fill:#FFFFFF;" d="M1060.574,2096.305L1060.574,2096.305c0,7.767,1.35,14.063,3.016,14.063h163.772
					c1.666,0,3.016-6.296,3.016-14.063l0,0c0-7.767-1.35-14.063-3.016-14.063H1063.59
					C1061.925,2082.241,1060.574,2088.537,1060.574,2096.305z"/>
				<path style="opacity:0.64;fill:#FFFFFF;" d="M1060.574,2144.247L1060.574,2144.247c0,7.767,1.35,14.063,3.016,14.063h163.772
					c1.666,0,3.016-6.296,3.016-14.063l0,0c0-7.767-1.35-14.063-3.016-14.063H1063.59
					C1061.925,2130.183,1060.574,2136.479,1060.574,2144.247z"/>
			</g>
			<g>
				<path style="opacity:0.64;fill:#FFFFFF;" d="M1304.578,2000.421L1304.578,2000.421c0,7.767,1.35,14.063,3.016,14.063h163.772
					c1.666,0,3.016-6.296,3.016-14.063l0,0c0-7.767-1.35-14.064-3.016-14.064h-163.772
					C1305.928,1986.357,1304.578,1992.653,1304.578,2000.421z"/>
				<path style="opacity:0.64;fill:#FFFFFF;" d="M1304.578,2048.363L1304.578,2048.363c0,7.767,1.35,14.063,3.016,14.063h163.772
					c1.666,0,3.016-6.296,3.016-14.063l0,0c0-7.767-1.35-14.064-3.016-14.064h-163.772
					C1305.928,2034.299,1304.578,2040.595,1304.578,2048.363z"/>
				<path style="opacity:0.64;fill:#FFFFFF;" d="M1304.578,2096.305L1304.578,2096.305c0,7.767,1.35,14.063,3.016,14.063h163.772
					c1.666,0,3.016-6.296,3.016-14.063l0,0c0-7.767-1.35-14.063-3.016-14.063h-163.772
					C1305.928,2082.241,1304.578,2088.537,1304.578,2096.305z"/>
				<path style="opacity:0.64;fill:#FFFFFF;" d="M1304.578,2144.247L1304.578,2144.247c0,7.767,1.35,14.063,3.016,14.063h163.772
					c1.666,0,3.016-6.296,3.016-14.063l0,0c0-7.767-1.35-14.063-3.016-14.063h-163.772
					C1305.928,2130.183,1304.578,2136.479,1304.578,2144.247z"/>
			</g>
			
				<linearGradient id="SVGID_00000152942883522810720730000002309362836622911879_" gradientUnits="userSpaceOnUse" x1="1858.567" y1="2423.8208" x2="1878.6687" y2="3180.9666">
				<stop  offset="0" style="stop-color:#09005D"/>
				<stop  offset="1" style="stop-color:#1A0F91"/>
			</linearGradient>
			<path style="fill:url(#SVGID_00000152942883522810720730000002309362836622911879_);" d="M2299.984,3238.497h-841.077
				c-22.85,0-40.008-16.266-35.59-33.739l10.792-42.682c3.246-12.836,17.367-22.26,34.14-22.783l810.828-25.301
				c17.523-0.547,33.038,8.755,36.856,22.094l19.456,67.983C2340.444,3221.732,2323.202,3238.497,2299.984,3238.497z"/>
			<path style="fill:#91B3FA;" d="M1911.674,3151.718c-1.966,0-3.572-1.578-3.602-3.551c-0.028-1.99,1.561-3.627,3.551-3.657
				l34.746-0.509c1.862,0.041,3.627,1.561,3.657,3.551c0.028,1.99-1.561,3.627-3.551,3.656l-34.746,0.509
				C1911.71,3151.718,1911.693,3151.718,1911.674,3151.718z"/>
			<path style="fill:#91B3FA;" d="M1454.458,3215.828c-0.19,0-0.382-0.014-0.574-0.046c-1.966-0.313-3.305-2.161-2.99-4.126
				l4.957-31.043c2.729-17.097,17.275-29.69,34.587-29.944l368.522-5.388c1.901-0.046,3.627,1.561,3.657,3.551
				c0.028,1.99-1.561,3.627-3.551,3.656l-368.522,5.388c-13.802,0.201-25.4,10.241-27.577,23.872l-4.957,31.043
				C1457.727,3214.564,1456.197,3215.828,1454.458,3215.828z"/>
		</g>
		<g>
			
				<linearGradient id="SVGID_00000124878826325398314110000004283099613078908556_" gradientUnits="userSpaceOnUse" x1="1548.401" y1="1794.076" x2="2180.5234" y2="2085.4509">
				<stop  offset="0" style="stop-color:#FF928E"/>
				<stop  offset="1" style="stop-color:#FE7062"/>
			</linearGradient>
			<path style="fill:url(#SVGID_00000124878826325398314110000004283099613078908556_);" d="M1905.903,1629.113H1564.14
				l92.684,528.168c2.113,12.042,10.355,22.213,21.815,26.474c38.146,14.184,75.089,16.881,110.276,2.828
				c12.893-5.149,22.102-16.758,24.502-30.432L1905.903,1629.113z"/>
			
				<linearGradient id="SVGID_00000166647938891373540670000000608665476264941219_" gradientUnits="userSpaceOnUse" x1="1248.8217" y1="929.4269" x2="2872.1626" y2="1677.701">
				<stop  offset="0" style="stop-color:#FF928E"/>
				<stop  offset="1" style="stop-color:#FE7062"/>
			</linearGradient>
			<path style="fill:url(#SVGID_00000166647938891373540670000000608665476264941219_);" d="M2358.301,886.497l-461.774-28.276
				l-782.772,28.276v32.598c0,16.016,4.686,31.682,13.482,45.068l436.904,664.95c114.591,36.114,229.184,36.114,343.776,0
				l436.904-664.95c8.794-13.386,13.481-29.052,13.481-45.068V886.497z"/>
			
				<linearGradient id="SVGID_00000062902814852180768100000016892156802919117209_" gradientUnits="userSpaceOnUse" x1="1757.4362" y1="-590.7094" x2="1744.0358" y2="320.5447">
				<stop  offset="0" style="stop-color:#FF928E"/>
				<stop  offset="1" style="stop-color:#FE7062"/>
			</linearGradient>
			<path style="fill:url(#SVGID_00000062902814852180768100000016892156802919117209_);" d="M2358.301,886.497
				c-397.527,47.481-813.717,43.801-1244.546,0v-42.484c0-22.245,17.71-40.447,39.947-41.057l1162.402-31.843
				c23.115-0.633,42.198,17.933,42.198,41.057L2358.301,886.497z"/>
			<path style="opacity:0.73;fill:#FFFFFF;" d="M1586.093,1594.313c-2.28,0-4.512-1.132-5.817-3.206l-374.202-593.153
				c-4.682-7.417-4.731-16.659-0.131-24.125c4.597-7.459,12.91-11.592,21.6-10.712c109.827,10.738,494.597,42.224,834.751-3.36
				c3.772-0.527,7.217,2.133,7.721,5.896c0.504,3.762-2.136,7.217-5.896,7.721c-341.616,45.79-727.718,14.193-837.911,3.419
				c-3.517-0.314-6.717,1.243-8.568,4.247c-1.855,3.01-1.832,6.593,0.056,9.583l374.202,593.156c2.025,3.206,1.063,7.45-2.146,9.475
				C1588.615,1593.969,1587.346,1594.313,1586.093,1594.313z"/>
			<path style="opacity:0.73;fill:#FFFFFF;" d="M1737.869,2177.177c-17.183,0-31.585-3.327-40.84-6.21
				c-9.014-2.804-15.613-10.437-16.803-19.447l-60.948-461.085c-0.497-3.763,2.15-7.214,5.912-7.711
				c3.707-0.484,7.211,2.146,7.711,5.912l60.948,461.085c0.491,3.717,3.344,6.906,7.266,8.127
				c14.932,4.649,44.799,10.6,77.055-1.773c3.537-1.364,7.518,0.406,8.876,3.949c1.361,3.543-0.409,7.518-3.949,8.876
				C1767.063,2175.056,1751.581,2177.177,1737.869,2177.177z"/>
		</g>
		<g>
			
				<linearGradient id="SVGID_00000087407857378394075650000009668583477872863662_" gradientUnits="userSpaceOnUse" x1="9962.0107" y1="3121.2937" x2="9550.8652" y2="3568.5049" gradientTransform="matrix(-1 0.0095 0.0095 1 12543.6113 -63.4747)">
				<stop  offset="0" style="stop-color:#09005D"/>
				<stop  offset="1" style="stop-color:#1A0F91"/>
			</linearGradient>
			<path style="fill:url(#SVGID_00000087407857378394075650000009668583477872863662_);" d="M2741.533,3184.533
				c0,0,4.488,24.065,6.803,47.908c0.906,9.318-6.207,17.483-15.557,17.963c-31.764,1.626-99.713,4.849-124.115,3.993
				c-3.668-0.129-6.101-3.859-4.777-7.283c1.11-2.868,3.281-5.2,6.064-6.511l111.786-52.674L2741.533,3184.533z"/>
			
				<linearGradient id="SVGID_00000157988952741921748730000010639345183965638837_" gradientUnits="userSpaceOnUse" x1="9828.5596" y1="3154.5046" x2="9865.0791" y2="3154.5046" gradientTransform="matrix(-1 0.0095 0.0095 1 12543.6113 -63.4747)">
				<stop  offset="0" style="stop-color:#FF928E"/>
				<stop  offset="1" style="stop-color:#FEB3B1"/>
			</linearGradient>
			<path style="fill:url(#SVGID_00000157988952741921748730000010639345183965638837_);" d="M2744.886,3170.336l-3.146,28.866
				c0,0-19.581,9.344-33.111-0.838l7.838-32.21L2744.886,3170.336z"/>
			
				<linearGradient id="SVGID_00000016781542937538649720000002689021922487639480_" gradientUnits="userSpaceOnUse" x1="9994.4063" y1="2615.512" x2="9644.5371" y2="3089.7144" gradientTransform="matrix(-1 0.0095 0.0095 1 12543.6113 -63.4747)">
				<stop  offset="0" style="stop-color:#09005D"/>
				<stop  offset="1" style="stop-color:#1A0F91"/>
			</linearGradient>
			<path style="fill:url(#SVGID_00000016781542937538649720000002689021922487639480_);" d="M2737.144,2628.278
				c1.549,7.516,11.516,375.676-26.269,541.065c-0.616,2.698,0.775,5.461,3.347,6.484c6.061,2.409,17.93,5.868,32.118,6.208
				c4.393,0.106,8.305-2.787,9.504-7.015c10.885-38.393,62.969-230.729,68.253-414.037c5.906-204.83-0.067-6.972-0.067-6.972
				l-5.816-126.522L2737.144,2628.278z"/>
			
				<linearGradient id="SVGID_00000128450559254013129050000008868883531844663180_" gradientUnits="userSpaceOnUse" x1="9869.7773" y1="3036.4836" x2="9458.6143" y2="3483.7134" gradientTransform="matrix(-1 0.0095 0.0095 1 12543.6113 -63.4747)">
				<stop  offset="0" style="stop-color:#09005D"/>
				<stop  offset="1" style="stop-color:#1A0F91"/>
			</linearGradient>
			<path style="fill:url(#SVGID_00000128450559254013129050000008868883531844663180_);" d="M2870.811,3195.877
				c0,0,6.894,12.105,13.765,44.379c1.241,5.829-2.787,11.457-8.711,12.097c-10.483,1.132-26.624,2.613-39.564,2.647
				c-5.965,0.015-10.669-5.134-10.007-11.062c1.321-11.817,5.601-31.226,19.251-46.45L2870.811,3195.877z"/>
			
				<linearGradient id="SVGID_00000129914342541034615710000017517260364288933528_" gradientUnits="userSpaceOnUse" x1="9696.9375" y1="3152.6267" x2="9728.4678" y2="3152.6267" gradientTransform="matrix(-1 0.0095 0.0095 1 12543.6113 -63.4747)">
				<stop  offset="0" style="stop-color:#FF928E"/>
				<stop  offset="1" style="stop-color:#FEB3B1"/>
			</linearGradient>
			<path style="fill:url(#SVGID_00000129914342541034615710000017517260364288933528_);" d="M2876.41,3158.733l-7.577,43.681
				c0,0-7.848,5.954-23.524,1.841l3.368-46.951L2876.41,3158.733z"/>
			
				<linearGradient id="SVGID_00000112613393438449178960000018436330346915394725_" gradientUnits="userSpaceOnUse" x1="9932.0508" y1="2569.5063" x2="9582.1855" y2="3043.7034" gradientTransform="matrix(-1 0.0095 0.0095 1 12543.6113 -63.4747)">
				<stop  offset="0" style="stop-color:#09005D"/>
				<stop  offset="1" style="stop-color:#1A0F91"/>
			</linearGradient>
			<path style="fill:url(#SVGID_00000112613393438449178960000018436330346915394725_);" d="M2893.04,2638.091
				c34.044,193.971-2.402,480.239-15.08,536.322c-0.776,3.434-3.516,6.085-6.983,6.694c-5.888,1.033-15.59,1.924-25.189-0.765
				c-3.307-0.926-5.652-3.878-5.819-7.309c-2.204-45.222-1.664-322.977-32.706-432.449c-1.573-5.548-5.016-10.367-9.748-13.663
				l-58.613-40.832l-5.102-66.858L2893.04,2638.091z"/>
			<g>
				
					<linearGradient id="SVGID_00000097468127412106561820000011464819254130465452_" gradientUnits="userSpaceOnUse" x1="3392.7463" y1="1745.8059" x2="3061.094" y2="2107.6091">
					<stop  offset="0" style="stop-color:#FF928E"/>
					<stop  offset="1" style="stop-color:#FE7062"/>
				</linearGradient>
				<path style="fill:url(#SVGID_00000097468127412106561820000011464819254130465452_);" d="M2684.404,2271.931
					c96.456-2.514,203.158,23.395,203.158,23.395c30.357,167.516,8.476,361.278,8.476,361.278
					c-74.499,20.298-159.05-10.459-159.05-10.459c-13.083-70.014-72.883-266.838-72.883-266.838
					c-47.191-5.4-86.15-18.629-118.298-36.303c24.121-28.506,35.277-64.591,40.068-85.905
					C2620.085,2267.373,2654.653,2272.706,2684.404,2271.931z"/>
				
					<linearGradient id="SVGID_00000176013869580348857540000018123158634068543910_" gradientUnits="userSpaceOnUse" x1="9978.8818" y1="2201.7166" x2="10165.4678" y2="2201.7166" gradientTransform="matrix(-1 0.0095 0.0095 1 12543.6113 -63.4747)">
					<stop  offset="0" style="stop-color:#FF928E"/>
					<stop  offset="1" style="stop-color:#FEB3B1"/>
				</linearGradient>
				<path style="fill:url(#SVGID_00000176013869580348857540000018123158634068543910_);" d="M2398.089,2132.552
					c9.367-11.537,21.414-6.237,21.414-6.237c14.769,59.833,89.67,107.746,166.372,130.783
					c-4.791,21.314-15.947,57.399-40.068,85.905C2418.208,2272.854,2398.089,2132.552,2398.089,2132.552z"/>
			</g>
			<g>
				
					<linearGradient id="SVGID_00000160889243364961858260000000855184567066930620_" gradientUnits="userSpaceOnUse" x1="322.8302" y1="2169.5125" x2="448.031" y2="2454.3728" gradientTransform="matrix(1 -0.0095 0.0095 1 2096.8855 36.7017)">
					<stop  offset="0" style="stop-color:#FF928E"/>
					<stop  offset="1" style="stop-color:#FEB3B1"/>
				</linearGradient>
				<path style="fill:url(#SVGID_00000160889243364961858260000000855184567066930620_);" d="M2400.417,2135.44
					c-0.961,3.162,10.567,7.853,17.206-5.105c0.177-6.182,3.682-32.689-0.058-37.688c-19.921-26.623-58.368-59.867-58.368-59.867
					c-6.383,6.42-1.015,12.615-1.015,12.615l18.68,19.091c-3.802,7.027-8.465,12.974-10.596,21.451
					c-1.614,6.419-0.524,13.253,2.766,19.051c3.302,5.818,7.804,13.379,12.049,19.289
					C2389.114,2135.464,2400.417,2135.44,2400.417,2135.44z"/>
				
					<linearGradient id="SVGID_00000065048563141663445790000015470541076254867345_" gradientUnits="userSpaceOnUse" x1="2469.6394" y1="1934.2836" x2="2369.1333" y2="2146.4631">
					<stop  offset="0" style="stop-color:#FF928E"/>
					<stop  offset="1" style="stop-color:#FEB3B1"/>
				</linearGradient>
				<path style="fill:url(#SVGID_00000065048563141663445790000015470541076254867345_);" d="M2385.07,2076.911l16.991,14.127
					l5.428,14.175l-14.869,16.814c0,0-5.322-28.178-9.136-34.252C2379.671,2081.703,2381.59,2078.731,2385.07,2076.911z"/>
			</g>
			
				<linearGradient id="SVGID_00000000186309487445189010000003036544156192359854_" gradientUnits="userSpaceOnUse" x1="3455.1565" y1="1803.0128" x2="3123.5029" y2="2164.8174">
				<stop  offset="0" style="stop-color:#FF928E"/>
				<stop  offset="1" style="stop-color:#FE7062"/>
			</linearGradient>
			<path style="fill:url(#SVGID_00000000186309487445189010000003036544156192359854_);" d="M2851.451,2389.091l36.111-93.766
				c0,0,90.694,60.366,106.254,137.852c-17.014,1.417-47.954,6.141-78.134,21.742
				C2908.668,2418.329,2851.451,2389.091,2851.451,2389.091z"/>
			
				<linearGradient id="SVGID_00000043450541386289600520000017474093798328817296_" gradientUnits="userSpaceOnUse" x1="9570.5947" y1="2465.9849" x2="9806.7139" y2="2465.9849" gradientTransform="matrix(-1 0.0095 0.0095 1 12543.6113 -63.4747)">
				<stop  offset="0" style="stop-color:#FF928E"/>
				<stop  offset="1" style="stop-color:#FEB3B1"/>
			</linearGradient>
			<path style="fill:url(#SVGID_00000043450541386289600520000017474093798328817296_);" d="M2773.543,2477.741
				c0,0,101.716,56.211,135.387,7.063c6.99-10.205,8.589-20.296,6.751-29.885c30.18-15.602,61.12-20.326,78.134-21.742
				c4.691,23.36,2.567,48.272-10.945,73.559c-58.752,109.954-222.479-3.923-222.479-3.923L2773.543,2477.741z"/>
			
				<linearGradient id="SVGID_00000112601456419780371310000008079556609363198619_" gradientUnits="userSpaceOnUse" x1="2757.0581" y1="2171.1423" x2="2774.9258" y2="2304.0339">
				<stop  offset="0" style="stop-color:#FF928E"/>
				<stop  offset="1" style="stop-color:#FEB3B1"/>
			</linearGradient>
			<path style="fill:url(#SVGID_00000112601456419780371310000008079556609363198619_);" d="M2781.374,2192.678l31.543,88.478
				c0.522,1.465-0.066,3.1-1.421,3.866c-8.323,4.706-38.341,18.365-74.89-4.321c-3.808-2.364-6.421-6.252-7.038-10.69
				l-10.673-76.736L2781.374,2192.678z"/>
			<g>
				<g>
					
						<linearGradient id="SVGID_00000163784669053606585690000009153690157721272720_" gradientUnits="userSpaceOnUse" x1="9578.3115" y1="2343.4009" x2="9708.6016" y2="2886.2761" gradientTransform="matrix(-1 0 0 1 12275.3223 0)">
						<stop  offset="0" style="stop-color:#09005D"/>
						<stop  offset="1" style="stop-color:#1A0F91"/>
					</linearGradient>
					<path style="fill:url(#SVGID_00000163784669053606585690000009153690157721272720_);" d="M2794.331,2566.576l-55.409-193.5
						c-0.629-2.197-2.503-3.798-4.773-4.063c-10.039-1.171-39.129-4.46-72.716-7.301c-40.456-3.422-87.438-6.195-115.513-3.836
						c-3.991,0.335-6.403,4.557-4.628,8.147c15.965,32.3,81.635,163.686,114.521,206.727c1.09,1.426,2.775,2.26,4.569,2.243
						l128.558-1.196C2792.682,2573.762,2795.361,2570.173,2794.331,2566.576z"/>
					
						<linearGradient id="SVGID_00000000214578091889549420000011250114308521736381_" gradientUnits="userSpaceOnUse" x1="9489.0332" y1="2487.02" x2="9562.8525" y2="2487.02" gradientTransform="matrix(-1 0 0 1 12275.3223 0)">
						<stop  offset="0" style="stop-color:#FF928E"/>
						<stop  offset="1" style="stop-color:#FEB3B1"/>
					</linearGradient>
					<path style="fill:url(#SVGID_00000000214578091889549420000011250114308521736381_);" d="M2780.944,2519.827
						c0,0,7.719-31.739,4.605-42.998c-3.114-11.26-9.146-25.738-29.253-22.521c-20.108,3.217-43.826,11.688-43.826,11.688
						s1.198,14.667,16.48,9.935l-9.477,7.333c0,0,1.355,11.743,14.263,5.47l-8.814,9.724c0,0,5.544,9.645,15.041,3.459
						C2749.459,2495.729,2754.012,2523.649,2780.944,2519.827z"/>
				</g>
				<path style="fill:#91B3FA;" d="M2665.128,2419.476c0,8.983-7.282,16.265-16.265,16.265c-8.983,0-16.265-7.282-16.265-16.265
					c0-8.984,7.282-16.265,16.265-16.265C2657.846,2403.211,2665.128,2410.493,2665.128,2419.476z"/>
				<path style="fill:#91B3FA;" d="M2732.653,2430.198l-11.281-38.269c-1.384-4.7-5.163-8.228-9.859-9.21
					c-35.359-7.377-132.138-8.942-133.111-8.956l0.064-4.323c3.992,0.061,98.169,1.588,133.93,9.049
					c6.258,1.305,11.287,5.987,13.125,12.217l11.281,38.269L2732.653,2430.198z"/>
			</g>
			<g>
				
					<linearGradient id="SVGID_00000172405209737045069990000010966531137782404998_" gradientUnits="userSpaceOnUse" x1="-1684.1163" y1="-6260.6265" x2="-1755.5837" y2="-6042.874" gradientTransform="matrix(-0.9992 0.0412 0.0412 0.9992 -1861.361 39.1477)">
					<stop  offset="0" style="stop-color:#FF928E"/>
					<stop  offset="1" style="stop-color:#FEB3B1"/>
				</linearGradient>
				<path style="fill:url(#SVGID_00000172405209737045069990000010966531137782404998_);" d="M2701.43,2114.608
					c0,0-18.504,47.796-18.861,72.497c-0.357,24.7-5.008,40.91,23.691,44.699c28.7,3.788,52.12-11.396,64.113-36.48
					c0,0,18.817-38.667,13.608-53.969C2778.771,2126.052,2701.43,2114.608,2701.43,2114.608z"/>
				
					<linearGradient id="SVGID_00000157298966633102537330000005740352017500710799_" gradientUnits="userSpaceOnUse" x1="-4551.2261" y1="2232.0823" x2="-4442.3135" y2="2372.3066" gradientTransform="matrix(-0.9992 0.0412 0.0412 0.9992 -1861.361 39.1477)">
					<stop  offset="0" style="stop-color:#09005D"/>
					<stop  offset="1" style="stop-color:#1A0F91"/>
				</linearGradient>
				<path style="fill:url(#SVGID_00000157298966633102537330000005740352017500710799_);" d="M2759.908,2178.074l-1.652-0.648
					c-2.103-0.825-3.087-3.247-2.133-5.294c3.698-7.929,10.798-26.043,0.508-29.776c-13.262-4.812-65.356-13.217-77.257-31.088
					c-11.438-17.175-2.884-40.307,11.114-47.364c0.937-0.471,2.076-0.174,2.604,0.732l1.281,2.2c0.877,1.507,3.142,1.18,3.557-0.513
					l0,0c0.399-1.625,2.522-2.025,3.466-0.644c3.653,5.343,13.268,13.853,38.192,17.398c35.421,5.039,59.249,18.307,60.829,42.575
					c0.1,1.542,1.777,2.332,3.062,1.474c2.531-1.689,6.654-2.603,12.397,1.837c9.989,7.72,6.906,28.941-13.544,47.135
					c-0.971,0.864-0.899,2.433,0.219,3.097c3.94,2.339,9.905,8.047-4.589,16.58c-14.991,8.826-26.466,8.625-30.904,8.08
					c-1.104-0.136-1.854-1.168-1.66-2.263l3.824-21.544c0.217-1.219-0.75-2.326-1.988-2.275L2759.908,2178.074z"/>
				
					<linearGradient id="SVGID_00000154424852916037186060000004709310353863417530_" gradientUnits="userSpaceOnUse" x1="-1719.188" y1="-6272.0234" x2="-1790.6547" y2="-6054.2734" gradientTransform="matrix(-0.9992 0.0412 0.0412 0.9992 -1861.361 39.1477)">
					<stop  offset="0" style="stop-color:#FF928E"/>
					<stop  offset="1" style="stop-color:#FEB3B1"/>
				</linearGradient>
				<path style="fill:url(#SVGID_00000154424852916037186060000004709310353863417530_);" d="M2759.209,2182.616
					c0,0,6.562-30.314,20.355-22.459c13.794,7.855-5.593,33.894-16.358,35.462L2759.209,2182.616z"/>
			</g>
		</g>
		<g>
			<g>
				<path style="fill:#7D97F4;" d="M2505.604,1197.799c-2.488-0.059-4.49-2.093-4.536-4.613
					c-0.464-25.83-8.422-154.083-119.984-180.885c-124.204-29.838-181.042,98.04-181.042,98.04s-153.675-59.676-183.147,100.171
					c-96.358,23.413-121.392,150.816-58.72,213.07c9.958,9.892,23.305,15.482,37.255,15.609l603.449,5.503
					c17.711,0.162,33.416-11.574,38.447-28.768C2656.177,1351.515,2680.885,1201.955,2505.604,1197.799z"/>
				<path style="fill:#91B3FA;" d="M2491.813,1200.539c-2.484-0.06-4.484-2.088-4.533-4.603
					c-0.494-24.774-8.375-143.698-113.448-168.628c-117.443-27.864-171.188,91.553-171.188,91.553s-145.311-55.728-173.178,93.544
					c-90.239,21.655-114.324,138.565-57.206,197.284c10.013,10.294,23.65,16.147,37.92,16.275l568.066,5.116
					c17.751,0.16,33.479-11.63,38.475-28.875C2634.436,1341.036,2655.459,1204.504,2491.813,1200.539z"/>
			</g>
		</g>
		<g>
			<g>
				
					<linearGradient id="SVGID_00000170273951120641434630000002115281957035452346_" gradientUnits="userSpaceOnUse" x1="886.2989" y1="2984.8755" x2="1482.3162" y2="2984.8755">
					<stop  offset="0" style="stop-color:#FF928E"/>
					<stop  offset="1" style="stop-color:#FE7062"/>
				</linearGradient>
				<path style="fill:url(#SVGID_00000170273951120641434630000002115281957035452346_);" d="M1470.894,3100.842
					c0,0-182.415,201.108-334.761,116.113c-122.439-68.309,51.513-50.46,199.067-82.736c11.58-2.533,8.548-19.841-3.203-18.283
					c-115.447,15.306-291.604,27.816-322.201-32.38c-46.189-90.874-1.396-61.402,139.18-48.275
					c140.577,13.127,167.662-21.585,75.902-43.205c-91.761-21.619-237.734,26.199-271.739-18.266
					c-34.005-44.465-52.592-132.729-66.146-170.689c-13.554-37.959,174.987-94.916,225.96-45.084
					c50.973,49.832,92.365,161.059,152.855,181.366c60.491,20.307-4.579-78.082-44.697-128.865
					c-40.118-50.784-56.023-88.526,24.13-76.413c80.152,12.113,122.521,109.937,130.971,182.957
					c8.449,73.02,36.68,113.863,35.402,77.737c-1.279-36.126-14.388-146.911-40.006-180.22
					C1345.991,2781.289,1528.87,2821.938,1470.894,3100.842z"/>
				<path style="opacity:0.3;fill:#FFFFFF;" d="M1456.047,3102.761c-0.802,0.305-1.741,0.171-2.434-0.438
					c-156.572-136.978-419.176-236.538-421.81-237.527c-1.24-0.466-1.867-1.846-1.402-3.089c0.464-1.234,1.848-1.865,3.088-1.399
					c2.642,0.99,266.047,100.848,423.283,238.41c0.996,0.869,1.097,2.384,0.225,3.381
					C1456.73,3102.406,1456.401,3102.626,1456.047,3102.761z"/>
			</g>
			<g>
				
					<linearGradient id="SVGID_00000129922952857211927470000015610552930773181847_" gradientUnits="userSpaceOnUse" x1="1117.452" y1="2852.0061" x2="1712.5428" y2="2852.0061">
					<stop  offset="0" style="stop-color:#FF928E"/>
					<stop  offset="1" style="stop-color:#FEB3B1"/>
				</linearGradient>
				<path style="fill:url(#SVGID_00000129922952857211927470000015610552930773181847_);" d="M1514.471,3241.353
					c0,0-333.133,10.991-388.352-195.928c-44.379-166.299,88.493,2.305,243.003,104.815c12.126,8.044,24.794-9.415,13.382-18.443
					c-112.12-88.702-273.641-233.313-246.71-311.713c40.654-118.353,52.938-53.687,161.461,81.459
					c108.522,135.146,162.263,129.37,102.932,30.005c-59.332-99.365-226.194-187.204-216.044-255.169
					c10.15-67.965,72.085-159.756,93.97-204.133c21.885-44.378,233.17,73.181,232.785,160.689
					c-0.386,87.509-63.081,219.022-29.307,289.699c33.775,70.677,64.925-70.742,75.422-149.496
					c10.498-78.753,30.184-125.017,87.98-44.007c57.796,81.01,7.751,201.933-49.405,271.764
					c-57.156,69.831-69.043,129.61-38.288,97.621c30.756-31.989,117.225-138.191,124.705-189.232
					C1689.482,2858.243,1809.881,3054.195,1514.471,3241.353z"/>
				<path style="opacity:0.3;fill:#FFFFFF;" d="M1500.096,3229.903c-0.954-0.447-1.638-1.389-1.693-2.52
					c-13.001-255.054-149.572-571.621-150.951-574.786c-0.649-1.492,0.033-3.223,1.526-3.875c1.484-0.645,3.223,0.036,3.872,1.528
					c1.384,3.175,138.377,320.7,151.431,576.839c0.084,1.621-1.165,3.003-2.789,3.088
					C1500.992,3230.202,1500.518,3230.101,1500.096,3229.903z"/>
			</g>
		</g>
	</g>
</g>
</svg>
